# xmcd CD database file generated by Grip 2.95
# 
# Track frame offsets:
#       150
#       28823
#       54429
#       101844
#       119307
#       125663
#       142871
#       156880
#       206513
#       255038
# 
# Disc length: 4102 seconds
# 
# Revision: 3
# Processed by: cddbd v1.4PL0 Copyright (c) Steve Scherf et al.
# Submitted via: Grip 2.95
# 
DISCID=8310040a
DTITLE=Dr. Hector and the Groove Injectors - Vital Signs
DYEAR=1900
DGENRE=
TTITLE0=Bad Connection
TTITLE1=Midnight Run
TTITLE2=Safe In Your Arms
TTITLE3=Mr. Right Now
TTITLE4=Slightly Drumfounded
TTITLE5=Fool Like Me
TTITLE6=Satisfy You
TTITLE7=Fool Like Me (2)
TTITLE8=When Did Love Let Go
TTITLE9=Picking The Blues
EXTD=
EXTT0=
EXTT1=
EXTT2=
EXTT3=
EXTT4=
EXTT5=
EXTT6=
EXTT7=
EXTT8=
EXTT9=
PLAYORDER=
